<svg width="19" height="22" viewBox="0 0 19 22" fill="none" xmlns="http://www.w3.org/2000/svg">
<g clip-path="url(#clip0_7_829)">
<rect x="0.368164" y="0.423798" width="18.5439" height="20.7766" rx="9.27197" fill="#C0DBEA"/>
<path d="M13.3435 12.1972C13.4914 11.7543 13.5665 11.285 13.565 10.8121C13.565 9.76208 13.1927 8.75507 12.53 8.01259C11.8673 7.27011 10.9685 6.853 10.0314 6.853C9.61447 6.85354 9.20103 6.93759 8.81055 7.10116L9.63987 8.05919C9.76594 8.0366 9.89338 8.02502 10.0211 8.02457C10.6837 8.02302 11.32 8.31529 11.791 8.83756C12.2619 9.35984 12.5293 10.0697 12.5348 10.8121C12.5344 10.9551 12.524 11.0979 12.5039 11.2392L13.3435 12.1972Z" fill="#D885A3"/>
<path d="M18.0308 10.5408C16.2949 6.94534 13.2506 4.76956 9.88179 4.76956C8.96456 4.77197 8.05349 4.93756 7.18262 5.26012L8.01194 6.19507C8.62279 6.0182 9.25088 5.92708 9.88179 5.92382C12.7819 5.92382 15.4192 7.736 16.9903 10.789C16.414 11.9217 15.65 12.9207 14.7393 13.7324L15.4707 14.5519C16.5247 13.5992 17.4 12.4224 18.0463 11.0891L18.1802 10.8121L18.0308 10.5408Z" fill="#D885A3"/>
<path d="M2.87637 3.75961L5.17376 6.3336C3.72162 7.38115 2.5348 8.83012 1.72768 10.5409L1.59375 10.8121L1.72768 11.0891C3.4636 14.6846 6.50789 16.8604 9.8767 16.8604C11.1916 16.8601 12.4894 16.5267 13.6731 15.8851L16.2486 18.7707L17.15 17.905L3.75721 2.89969L2.87637 3.75961ZM7.89869 9.38661L11.3242 13.2245C10.9371 13.4929 10.4916 13.6367 10.0364 13.64C9.70565 13.6401 9.37818 13.5668 9.07281 13.4245C8.76745 13.2821 8.49021 13.0735 8.25707 12.8107C8.02392 12.5479 7.83946 12.236 7.71431 11.893C7.58915 11.55 7.52577 11.1827 7.52781 10.8121C7.53361 10.308 7.66182 9.81523 7.89869 9.38661V9.38661ZM7.15178 8.54977C6.66986 9.31124 6.44398 10.2392 6.51413 11.1694C6.58428 12.0995 6.94594 12.9718 7.53507 13.6319C8.1242 14.292 8.9028 14.6972 9.733 14.7758C10.5632 14.8544 11.3914 14.6013 12.0711 14.0613L12.8952 14.9848C11.9411 15.4417 10.9143 15.6773 9.8767 15.6773C6.97664 15.6773 4.33928 13.8651 2.7682 10.8121C3.52217 9.31633 4.60803 8.06395 5.92067 7.17621L7.15178 8.54977Z" fill="#D885A3"/>
</g>
<defs>
<clipPath id="clip0_7_829">
<rect x="0.368164" y="0.423798" width="18.5439" height="20.7766" rx="9.27197" fill="white"/>
</clipPath>
</defs>
</svg>
