<svg width="29" height="32" viewBox="0 0 29 32" fill="none" xmlns="http://www.w3.org/2000/svg">
<path fill-rule="evenodd" clip-rule="evenodd" d="M14.4812 0.728638C6.79705 0.728638 0.573242 7.70179 0.573242 16.3111C0.573242 23.2063 4.55439 29.0303 10.0828 31.095C10.7782 31.2313 11.039 30.7638 11.039 30.3548C11.039 29.9847 11.0216 28.7576 11.0216 27.4526C7.52722 28.1733 6.6232 26.4981 6.34504 25.6216C6.18858 25.1736 5.51056 23.7907 4.91948 23.4206C4.4327 23.1284 3.7373 22.4077 4.90209 22.3883C5.99734 22.3688 6.77966 23.518 7.04044 23.9855C8.29215 26.3423 10.2914 25.6801 11.0911 25.271C11.2128 24.2582 11.5779 23.5764 11.9778 23.1869C8.88324 22.7973 5.64964 21.4533 5.64964 15.493C5.64964 13.7984 6.18858 12.396 7.07521 11.3052C6.93613 10.9157 6.44935 9.31847 7.21429 7.17588C7.21429 7.17588 8.37908 6.76684 11.039 8.77308C12.1516 8.42248 13.3338 8.24718 14.516 8.24718C15.6981 8.24718 16.8803 8.42248 17.9929 8.77308C20.6528 6.74736 21.8176 7.17588 21.8176 7.17588C22.5826 9.31847 22.0958 10.9157 21.9567 11.3052C22.8433 12.396 23.3823 13.779 23.3823 15.493C23.3823 21.4728 20.1313 22.7973 17.0368 23.1869C17.5409 23.6738 17.9756 24.6088 17.9756 26.0696C17.9756 28.1538 17.9582 29.8289 17.9582 30.3548C17.9582 30.7638 18.219 31.2508 18.9143 31.095C21.6753 30.0506 24.0744 28.0625 25.7741 25.4104C27.4737 22.7584 28.3883 19.576 28.3891 16.3111C28.3891 7.70179 22.1653 0.728638 14.4812 0.728638Z" fill="black"/>
</svg>
