<svg width="28" height="32" viewBox="0 0 28 32" fill="none" xmlns="http://www.w3.org/2000/svg">
<path d="M27.6533 12.5575H26.533V12.4929H14.0161V18.7257H21.8761C20.7294 22.354 17.6481 24.9586 14.0161 24.9586C9.40779 24.9586 5.67148 20.7725 5.67148 15.6093C5.67148 10.4461 9.40779 6.25998 14.0161 6.25998C16.1433 6.25998 18.0786 7.15907 19.5521 8.62769L23.4859 4.22027C21.002 1.62661 17.6794 0.0270996 14.0161 0.0270996C6.33558 0.0270996 0.108398 7.00403 0.108398 15.6093C0.108398 24.2146 6.33558 31.1915 14.0161 31.1915C21.6966 31.1915 27.9238 24.2146 27.9238 15.6093C27.9238 14.5645 27.8279 13.5447 27.6533 12.5575Z" fill="#FFC107"/>
<path d="M1.71094 8.35632L6.28032 12.1108C7.51671 8.68121 10.511 6.25973 14.0151 6.25973C16.1423 6.25973 18.0775 7.15882 19.5511 8.62745L23.4848 4.22002C21.0009 1.62637 17.6784 0.0268555 14.0151 0.0268555C8.67314 0.0268555 4.04048 3.40585 1.71094 8.35632Z" fill="#FF3D00"/>
<path d="M14.0161 31.1919C17.6085 31.1919 20.8726 29.6516 23.3405 27.1467L19.0361 23.0658C17.5928 24.2955 15.8293 24.9606 14.0161 24.959C10.3987 24.959 7.32719 22.3747 6.17007 18.7682L1.63477 22.6832C3.93649 27.7295 8.61087 31.1919 14.0161 31.1919Z" fill="#4CAF50"/>
<path d="M27.6538 12.557H26.5335V12.4923H14.0166V18.7252H21.8765C21.328 20.452 20.34 21.961 19.0345 23.0656L19.0366 23.0641L23.341 27.145C23.0364 27.4551 27.9243 23.3998 27.9243 15.6087C27.9243 14.564 27.8284 13.5441 27.6538 12.557Z" fill="#1976D2"/>
</svg>
