<svg width="19" height="18" viewBox="0 0 19 18" fill="none" xmlns="http://www.w3.org/2000/svg">
<path d="M8.86444 1.50206C9.83152 1.50206 10.1595 1.50924 10.4083 1.57988C11.0926 1.77414 11.6275 2.30971 11.8215 2.99495C11.8916 3.2424 11.8991 3.56797 11.8992 4.52061C11.8992 4.52735 11.8992 4.53411 11.8992 4.54091C11.9116 4.94482 12.2428 5.26844 12.6492 5.26844C13.0556 5.26844 13.3865 4.94482 13.3988 4.54091L13.3992 4.42164C13.3996 3.62013 13.3998 3.06268 13.2646 2.58531C12.9287 1.39867 12.0025 0.47121 10.8174 0.13482C10.3407 -0.000503346 9.78402 -0.000285284 8.98356 2.97155e-05L6.69512 5.96371e-05C5.32753 3.96371e-05 4.22521 1.96621e-05 3.35825 0.11674C2.45814 0.23792 1.70026 0.49716 1.09835 1.09988C0.496433 1.7026 0.237544 2.46148 0.116524 3.3628C-3.54499e-05 4.23091 -1.94781e-05 5.3347 5.2187e-07 6.7041V11.2959C-1.94781e-05 12.6653 -3.54499e-05 13.7691 0.116524 14.6372C0.237544 15.5385 0.496433 16.2974 1.09835 16.9001C1.70026 17.5028 2.45814 17.7621 3.35825 17.8833C4.22522 18 5.32754 18 6.69513 17.9999L8.9904 18C9.78452 18.0003 10.3368 18.0005 10.81 17.8673C12.0011 17.532 12.9319 16.5999 13.2667 15.4072C13.3998 14.9334 13.3996 14.3804 13.3992 13.5852V13.4669V13.463C13.3992 13.0482 13.0634 12.712 12.6492 12.712C12.235 12.712 11.8992 13.0482 11.8992 13.463V13.4669C11.8992 14.4275 11.8922 14.7534 11.8227 15.0007C11.6294 15.6895 11.0918 16.2277 10.404 16.4213C10.157 16.4909 9.83162 16.4979 8.87222 16.4979H6.75C5.31458 16.4979 4.31347 16.4963 3.55812 16.3947C2.82434 16.2959 2.43577 16.1152 2.15901 15.838C1.88224 15.5609 1.7018 15.1718 1.60315 14.4371C1.50159 13.6807 1.5 12.6783 1.5 11.2409V6.75908C1.5 5.32175 1.50159 4.31929 1.60315 3.56293C1.7018 2.82818 1.88224 2.43909 2.15901 2.16195C2.43577 1.88482 2.82434 1.70413 3.55812 1.60535C4.31347 1.50366 5.31458 1.50206 6.75 1.50206H8.86444Z" fill="white"/>
<path d="M16.494 6.22564C16.2006 5.92777 15.7217 5.92438 15.4242 6.21809C15.1268 6.51179 15.1234 6.99136 15.4167 7.28924L16.4371 8.32552L9.75641 8.32562C9.33865 8.32562 8.99999 8.66474 9 9.08302C9 9.50142 9.33867 9.84052 9.75643 9.84052L16.4004 9.84042L15.4243 10.8039C15.1268 11.0976 15.1234 11.5771 15.4166 11.875C15.7099 12.1729 16.1889 12.1764 16.4864 11.8827L18.7762 9.62232C18.9191 9.48132 19.0002 9.28922 19.0016 9.08832C19.003 8.88741 18.9247 8.69418 18.7838 8.55113L16.494 6.22564Z" fill="white"/>
</svg>
