<svg width="461" height="65" viewBox="0 0 461 65" fill="none" xmlns="http://www.w3.org/2000/svg">
<rect x="158.123" y="0.5" width="143.874" height="63.9269" rx="31.9635" fill="white" stroke="#6096B4"/>
<rect x="0.5" y="0.5" width="143.874" height="63.9269" rx="31.9635" fill="white" stroke="#6096B4"/>
<rect x="315.747" y="0.5" width="143.874" height="63.9269" rx="31.9635" fill="white" stroke="#6096B4"/>
<path d="M86.6543 29.4113H85.534V29.3466H73.0171V35.5795H80.877C79.7303 39.2078 76.6491 41.8124 73.0171 41.8124C68.4088 41.8124 64.6725 37.6262 64.6725 32.4631C64.6725 27.2999 68.4088 23.1137 73.0171 23.1137C75.1443 23.1137 77.0795 24.0128 78.553 25.4815L82.4868 21.074C80.0029 18.4804 76.6804 16.8809 73.0171 16.8809C65.3366 16.8809 59.1094 23.8578 59.1094 32.4631C59.1094 41.0683 65.3366 48.0452 73.0171 48.0452C80.6976 48.0452 86.9248 41.0683 86.9248 32.4631C86.9248 31.4183 86.8288 30.3984 86.6543 29.4113Z" fill="#FFC107"/>
<path d="M60.7119 25.2101L65.2813 28.9647C66.5177 25.535 69.512 23.1136 73.0161 23.1136C75.1432 23.1136 77.0785 24.0126 78.552 25.4813L82.4858 21.0738C80.0019 18.4802 76.6794 16.8807 73.0161 16.8807C67.6741 16.8807 63.0415 20.2597 60.7119 25.2101Z" fill="#FF3D00"/>
<path d="M73.0171 48.0456C76.6094 48.0456 79.8736 46.5053 82.3415 44.0005L78.0371 39.9195C76.5938 41.1493 74.8303 41.8144 73.0171 41.8128C69.3997 41.8128 66.3282 39.2284 65.171 35.6219L60.6357 39.537C62.9375 44.5833 67.6118 48.0456 73.0171 48.0456Z" fill="#4CAF50"/>
<path d="M86.6548 29.4108H85.5345V29.3461H73.0176V35.579H80.8775C80.329 37.3058 79.341 38.8148 78.0355 39.9194L78.0376 39.9179L82.342 43.9988C82.0374 44.3089 86.9253 40.2537 86.9253 32.4626C86.9253 31.4178 86.8293 30.3979 86.6548 29.4108Z" fill="#1976D2"/>
<path fill-rule="evenodd" clip-rule="evenodd" d="M229.481 15.5823C221.797 15.5823 215.573 22.5554 215.573 31.1647C215.573 38.06 219.554 43.8839 225.083 45.9486C225.778 46.0849 226.039 45.6175 226.039 45.2084C226.039 44.8383 226.022 43.6112 226.022 42.3062C222.527 43.0269 221.623 41.3518 221.345 40.4753C221.189 40.0273 220.511 38.6443 219.919 38.2742C219.433 37.9821 218.737 37.2614 219.902 37.2419C220.997 37.2224 221.78 38.3716 222.04 38.8391C223.292 41.1959 225.291 40.5337 226.091 40.1247C226.213 39.1118 226.578 38.4301 226.978 38.0405C223.883 37.6509 220.65 36.307 220.65 30.3467C220.65 28.6521 221.189 27.2496 222.075 26.1589C221.936 25.7693 221.449 24.1721 222.214 22.0295C222.214 22.0295 223.379 21.6205 226.039 23.6267C227.152 23.2761 228.334 23.1008 229.516 23.1008C230.698 23.1008 231.88 23.2761 232.993 23.6267C235.653 21.601 236.818 22.0295 236.818 22.0295C237.583 24.1721 237.096 25.7693 236.957 26.1589C237.843 27.2496 238.382 28.6326 238.382 30.3467C238.382 36.3264 235.131 37.6509 232.037 38.0405C232.541 38.5275 232.976 39.4624 232.976 40.9233C232.976 43.0074 232.958 44.6825 232.958 45.2084C232.958 45.6175 233.219 46.1044 233.914 45.9486C236.675 44.9042 239.074 42.9161 240.774 40.2641C242.474 37.612 243.388 34.4296 243.389 31.1647C243.389 22.5554 237.165 15.5823 229.481 15.5823Z" fill="black"/>
<path d="M401.013 32.5588C401.013 23.8988 394.785 16.8789 387.105 16.8789C379.421 16.8809 373.193 23.8988 373.193 32.5607C373.193 40.3851 378.28 46.8713 384.928 48.0477V37.0913H381.399V32.5607H384.932V29.1033C384.932 25.1746 387.009 23.0048 390.185 23.0048C391.708 23.0048 393.299 23.3106 393.299 23.3106V27.1672H391.545C389.819 27.1672 389.28 28.3768 389.28 29.6176V32.5588H393.136L392.52 37.0894H389.278V48.0458C395.926 46.8693 401.013 40.3831 401.013 32.5588Z" fill="#059BE5"/>
</svg>
