<svg width="23" height="21" viewBox="0 0 23 21" fill="none" xmlns="http://www.w3.org/2000/svg">
<path d="M0.976562 2.76754C0.976562 2.07509 1.21974 1.50384 1.70607 1.05378C2.1924 0.603694 2.82465 0.378662 3.60278 0.378662C4.36703 0.378662 4.98536 0.600225 5.45781 1.04339C5.94414 1.50039 6.18731 2.09587 6.18731 2.82985C6.18731 3.49458 5.9511 4.04851 5.47865 4.49168C4.99232 4.94868 4.35313 5.17718 3.56109 5.17718H3.54025C2.776 5.17718 2.15767 4.94868 1.68522 4.49168C1.21278 4.03468 0.976562 3.45996 0.976562 2.76754ZM1.24752 20.9437V7.06751H5.87467V20.9437H1.24752ZM8.43836 20.9437H13.0655V13.1955C13.0655 12.7108 13.1211 12.3369 13.2322 12.0738C13.4268 11.6029 13.7221 11.2047 14.1181 10.8793C14.5141 10.5539 15.0108 10.3912 15.6083 10.3912C17.1646 10.3912 17.9428 11.4367 17.9428 13.5279V20.9437H22.5699V12.9878C22.5699 10.9382 22.0836 9.38368 21.1109 8.32426C20.1382 7.26485 18.8529 6.73514 17.2549 6.73514C15.4624 6.73514 14.066 7.50374 13.0655 9.04092V9.08247H13.0447L13.0655 9.04092V7.06751H8.43836C8.46614 7.51065 8.48004 8.88858 8.48004 11.2013C8.48004 13.514 8.46614 16.7615 8.43836 20.9437Z" fill="#1678F2"/>
</svg>
