<svg width="23" height="18" viewBox="0 0 23 18" fill="none" xmlns="http://www.w3.org/2000/svg">
<path d="M15.035 0.305891V0.302002H16.0474L16.4174 0.37589C16.664 0.423858 16.8879 0.486721 17.0891 0.564497C17.2904 0.642274 17.4851 0.733019 17.6733 0.836715C17.8615 0.94041 18.0322 1.04607 18.1854 1.15365C18.3373 1.25995 18.4736 1.37273 18.5943 1.49198C18.7137 1.61253 18.8999 1.64364 19.1531 1.58531C19.4062 1.52698 19.6788 1.44596 19.9709 1.34226C20.2629 1.23857 20.5517 1.1219 20.8373 0.992267C21.1229 0.862634 21.2968 0.780327 21.3592 0.745327C21.4202 0.709045 21.4526 0.689601 21.4565 0.686995L21.4604 0.681162L21.4799 0.67144L21.4993 0.661718L21.5188 0.651996L21.5383 0.642274L21.5422 0.63644L21.548 0.632552L21.5539 0.628663L21.5577 0.62283L21.5772 0.616996L21.5967 0.613108L21.5928 0.642274L21.5869 0.67144L21.5772 0.700606L21.5675 0.729772L21.5577 0.749216L21.548 0.76866L21.5383 0.797826C21.5318 0.817271 21.5253 0.84319 21.5188 0.875603C21.5123 0.908016 21.4506 1.03763 21.3338 1.26448C21.217 1.49134 21.071 1.72142 20.8957 1.95475C20.7205 2.18808 20.5634 2.36436 20.4245 2.48363C20.2844 2.60418 20.1915 2.68843 20.1461 2.7364C20.1007 2.78565 20.0455 2.83102 19.9806 2.87251L19.8832 2.93668L19.8638 2.9464L19.8443 2.95612L19.8404 2.96195L19.8346 2.96584L19.8287 2.96973L19.8248 2.97557L19.8053 2.98529L19.7859 2.99501L19.782 3.00084L19.7761 3.00473L19.7703 3.00862L19.7664 3.01445L19.7625 3.02029L19.7567 3.02418L19.7508 3.02806L19.7469 3.0339H19.8443L20.3895 2.91723C20.7529 2.83946 21.1002 2.74548 21.4312 2.63529L21.9569 2.4603L22.0153 2.44085L22.0445 2.43113L22.064 2.42141L22.0835 2.41169L22.1029 2.40196L22.1224 2.39224L22.1613 2.38641L22.2003 2.38252V2.42141L22.1905 2.4253L22.1808 2.43113L22.1769 2.43696L22.1711 2.44085L22.1652 2.44474L22.1613 2.45057L22.1575 2.45641L22.1516 2.4603L22.1458 2.46419L22.1419 2.47002L22.138 2.47585L22.1321 2.47974L22.1224 2.49919L22.1127 2.51863L22.1068 2.52252C22.1042 2.52641 22.0218 2.63658 21.8595 2.85307C21.6973 3.07084 21.6097 3.18101 21.5967 3.18362C21.5837 3.18751 21.5655 3.20695 21.5422 3.24195C21.5201 3.27823 21.3825 3.42278 21.1294 3.67555C20.8763 3.92833 20.6283 4.15322 20.3856 4.35026C20.1416 4.54859 20.0182 4.79229 20.0157 5.08136C20.0118 5.36913 19.9968 5.69451 19.9709 6.05746C19.9449 6.42042 19.8962 6.81253 19.8248 7.23382C19.7534 7.65512 19.6431 8.1315 19.4938 8.66296C19.3445 9.19443 19.1628 9.71295 18.9486 10.2185C18.7344 10.724 18.5105 11.1777 18.2769 11.5796C18.0432 11.9814 17.829 12.3217 17.6343 12.6004C17.4396 12.8791 17.2417 13.1416 17.0405 13.3879C16.8393 13.6342 16.5849 13.9116 16.2772 14.2201C15.9683 14.5273 15.7995 14.6958 15.771 14.7256C15.7411 14.7542 15.6139 14.8605 15.3893 15.0445C15.1661 15.2299 14.9259 15.4152 14.6689 15.6006C14.4132 15.7847 14.1782 15.9383 13.964 16.0614C13.7499 16.1846 13.4916 16.3252 13.1891 16.4834C12.888 16.6428 12.5621 16.7906 12.2117 16.9267C11.8612 17.0628 11.4912 17.1892 11.1018 17.3059C10.7124 17.4225 10.336 17.5133 9.97249 17.5781C9.60904 17.6429 9.1969 17.698 8.73608 17.7434L8.04486 17.8114V17.8211H6.77924V17.8114L6.61374 17.8017C6.50342 17.7952 6.41255 17.7887 6.34115 17.7822C6.26976 17.7758 6.0004 17.7401 5.5331 17.6753C5.06579 17.6105 4.6991 17.5457 4.43299 17.4809C4.1669 17.4161 3.77097 17.2929 3.24526 17.1114C2.71954 16.93 2.26976 16.7465 1.89591 16.5612C1.52338 16.3771 1.28972 16.2604 1.19496 16.2112C1.1015 16.1632 0.996354 16.1036 0.879528 16.0323L0.704289 15.9253L0.700414 15.9195L0.694553 15.9156L0.688712 15.9117L0.684818 15.9059L0.665347 15.8962L0.645876 15.8864L0.642001 15.8806L0.63614 15.8767L0.630299 15.8728L0.626405 15.867L0.62253 15.8612L0.616669 15.8573H0.606934V15.8184L0.626405 15.8223L0.645876 15.8281L0.733495 15.8378C0.791908 15.8443 0.950928 15.854 1.21053 15.867C1.47016 15.88 1.74599 15.88 2.03805 15.867C2.33012 15.854 2.62869 15.8249 2.93372 15.7795C3.23877 15.7341 3.59899 15.6564 4.01436 15.5462C4.42975 15.436 4.81139 15.3051 5.15927 15.1534C5.50586 15.0005 5.75248 14.8864 5.89917 14.8112C6.04454 14.7373 6.26651 14.5999 6.56506 14.399L7.0129 14.0976L7.01679 14.0918L7.02263 14.0879L7.02849 14.084L7.03237 14.0781L7.03626 14.0723L7.0421 14.0684L7.04796 14.0645L7.05184 14.0587L7.07131 14.0529L7.09078 14.049L7.09467 14.0295L7.10051 14.0101L7.10638 14.0062L7.11025 14.0004L6.95448 13.9906C6.85064 13.9842 6.75004 13.9777 6.65268 13.9712C6.55533 13.9647 6.40281 13.9356 6.19511 13.8837C5.98744 13.8318 5.76352 13.7541 5.52336 13.6504C5.28323 13.5467 5.04958 13.4235 4.82241 13.2809C4.59526 13.1384 4.43104 13.0197 4.32979 12.9251C4.22985 12.8318 4.10003 12.6996 3.94037 12.5285C3.78201 12.3561 3.64441 12.1791 3.52758 11.9976C3.41076 11.8162 3.29913 11.6068 3.1927 11.3696L3.03107 11.0157L3.02134 10.9865L3.0116 10.9574L3.00576 10.9379L3.00187 10.9185L3.03107 10.9224L3.06028 10.9282L3.27446 10.9574C3.41726 10.9768 3.64118 10.9833 3.94621 10.9768C4.25126 10.9703 4.46219 10.9574 4.57902 10.9379C4.69585 10.9185 4.76725 10.9055 4.7932 10.899L4.83214 10.8893L4.88082 10.8796L4.9295 10.8699L4.93339 10.864L4.93923 10.8601L4.94509 10.8563L4.94897 10.8504L4.91003 10.8407L4.87108 10.831L4.83214 10.8213L4.7932 10.8115L4.75426 10.8018C4.7283 10.7953 4.68288 10.7824 4.61796 10.7629C4.55306 10.7435 4.37783 10.6722 4.09224 10.549C3.80668 10.4259 3.57951 10.306 3.41076 10.1893C3.24159 10.0723 3.08028 9.94437 2.92788 9.80628C2.776 9.66628 2.60922 9.48609 2.42747 9.26573C2.24575 9.04537 2.0835 8.78935 1.9407 8.49769C1.79792 8.20603 1.69083 7.92734 1.61943 7.66159C1.54831 7.39741 1.5014 7.12733 1.47925 6.85466L1.44419 6.44634L1.46366 6.45023L1.48313 6.45606L1.5026 6.46578L1.52207 6.4755L1.54154 6.48523L1.56101 6.49495L1.86281 6.63106C2.06403 6.7218 2.3139 6.79958 2.61245 6.86439C2.91102 6.92919 3.08949 6.96485 3.1479 6.97133L3.23552 6.98105H3.41076L3.40688 6.97522L3.40102 6.97133L3.39518 6.96744L3.39129 6.96161L3.38741 6.95577L3.38155 6.95188L3.37571 6.94799L3.37182 6.94216L3.35235 6.93244L3.33287 6.92272L3.329 6.91688L3.32314 6.913L3.3173 6.90911L3.3134 6.90327L3.29393 6.89355L3.27446 6.88383L3.27059 6.878C3.26669 6.87539 3.21087 6.83392 3.10312 6.75355C2.99667 6.67189 2.88504 6.56625 2.76822 6.43662C2.65139 6.30698 2.53456 6.17087 2.41774 6.02829C2.3007 5.88538 2.19645 5.73248 2.1062 5.57135C2.01535 5.40933 1.91928 5.2032 1.81803 4.95303C1.71809 4.70415 1.64215 4.45332 1.59022 4.20054C1.53831 3.94777 1.5091 3.69824 1.5026 3.45195C1.49612 3.20565 1.5026 2.99501 1.52207 2.82001C1.54154 2.64502 1.58048 2.44733 1.6389 2.22697C1.69731 2.00661 1.7817 1.77328 1.89202 1.52698L2.05752 1.15754L2.06726 1.12838L2.07699 1.09921L2.08286 1.09532L2.08673 1.08949L2.09062 1.08365L2.09647 1.07977L2.10233 1.08365L2.1062 1.08949L2.1101 1.09532L2.11594 1.09921L2.1218 1.1031L2.12567 1.10893L2.12957 1.11477L2.13541 1.11865L2.14514 1.1381L2.15488 1.15754L2.16074 1.16143L2.16461 1.16726L2.42747 1.45893C2.60271 1.65337 2.81041 1.8705 3.05055 2.1103C3.2907 2.35011 3.42375 2.47455 3.4497 2.48363C3.47568 2.49399 3.50811 2.5238 3.54706 2.57307C3.586 2.62104 3.71581 2.73576 3.93648 2.91723C4.15716 3.09871 4.44597 3.30936 4.80294 3.54917C5.15992 3.78897 5.55582 4.02555 5.99067 4.25888C6.42553 4.49221 6.89284 4.70284 7.39258 4.89081C7.89234 5.07878 8.24282 5.20191 8.44401 5.26025C8.64523 5.31858 8.9892 5.39311 9.47598 5.48385C9.96275 5.5746 10.3295 5.63293 10.5761 5.65885C10.8227 5.68477 10.9915 5.69968 11.0823 5.70357L11.2186 5.70746L11.2148 5.6783L11.2089 5.64913L11.17 5.40608C11.144 5.24405 11.131 5.0172 11.131 4.72553C11.131 4.43387 11.1537 4.1649 11.1992 3.9186C11.2446 3.67231 11.3128 3.42278 11.4036 3.17001C11.4945 2.91723 11.5834 2.71435 11.6704 2.56141C11.7586 2.40974 11.8742 2.23669 12.0169 2.04225C12.1597 1.84781 12.3447 1.64689 12.5719 1.43948C12.799 1.23207 13.0586 1.04735 13.3507 0.885325C13.6428 0.723297 13.9121 0.600138 14.1588 0.515887C14.4054 0.431636 14.6131 0.376531 14.7818 0.350612C14.9506 0.324693 15.035 0.30978 15.035 0.305891V0.305891Z" fill="#1678F2"/>
</svg>
