<svg width="127" height="122" viewBox="0 0 127 122" fill="none" xmlns="http://www.w3.org/2000/svg">
<path fill-rule="evenodd" clip-rule="evenodd" d="M70.2705 9.77148e-07H56.7293C46.4027 -5.3245e-05 38.2267 -9.35229e-05 31.7115 0.66307C25.0353 1.34254 19.4876 2.76479 14.6827 6.01358C11.3923 8.23831 8.53058 11.0017 6.2268 14.1788C2.86292 18.8177 1.39036 24.1735 0.686708 30.6194C-8.62115e-06 36.9102 6.23071e-05 44.8047 0.000132863 54.7766L6.22113e-05 69.7595C-0.000883233 76.3868 -0.00147621 80.5931 0.839673 84.2036C3.7594 96.735 13.8948 106.523 26.8759 109.344C30.6157 110.156 34.9729 110.156 41.835 110.154H42.624C44.4747 110.154 44.9297 110.164 45.3234 110.213C46.9433 110.411 48.4533 111.111 49.6264 112.21C49.9116 112.476 50.204 112.814 51.36 114.209L52.1029 115.106C53.0456 116.244 53.9096 117.287 54.688 118.109C55.5103 118.978 56.5322 119.927 57.8828 120.63C61.3887 122.457 65.611 122.457 69.1169 120.63C70.468 119.927 71.4897 118.978 72.3117 118.109C73.0906 117.287 73.9549 116.243 74.8989 115.104L75.6398 114.209C76.7962 112.814 77.0883 112.476 77.3733 112.21C78.5467 111.111 80.0565 110.411 81.6765 110.213C82.0702 110.164 82.5253 110.154 84.376 110.154H85.1648C92.027 110.156 96.3845 110.156 100.124 109.344C113.105 106.523 123.241 96.735 126.16 84.2036C127.001 80.5931 127.001 76.3861 127 69.7588V54.7772C127 44.805 127 36.9104 126.313 30.6194C125.609 24.1735 124.137 18.8177 120.773 14.1788C118.469 11.0017 115.607 8.23831 112.317 6.01358C107.513 2.76479 101.965 1.34254 95.2888 0.66307C88.773 -9.35229e-05 80.597 -5.3245e-05 70.2705 9.77148e-07ZM32.8377 10.9695C38.7242 10.3704 46.3345 10.3637 57.041 10.3637H69.9586C80.6654 10.3637 88.2756 10.3704 94.162 10.9695C99.9532 11.5589 103.454 12.6746 106.156 14.5016C108.421 16.0325 110.39 17.9344 111.976 20.1211C113.868 22.7309 115.024 26.1126 115.634 31.7052C116.255 37.3898 116.262 44.739 116.262 55.0773V68.9984C116.262 76.6315 116.229 79.5913 115.684 81.9297C113.673 90.5571 106.697 97.2928 97.766 99.2326C95.3445 99.7593 92.281 99.7911 84.376 99.7911H84.098C82.6537 99.7904 81.4775 99.7898 80.3239 99.9314C76.3975 100.413 72.7392 102.11 69.898 104.77C69.0633 105.552 68.3288 106.438 67.4271 107.527L66.6094 108.515C65.5369 109.809 64.8949 110.579 64.3847 111.119C64.1498 111.366 64.0108 111.491 63.9487 111.542C63.6637 111.667 63.3364 111.667 63.0511 111.542C62.9894 111.491 62.85 111.366 62.6154 111.119C62.105 110.579 61.4628 109.809 60.3909 108.515L59.5729 107.527C58.6713 106.438 57.937 105.552 57.1021 104.77C54.2609 102.11 50.6024 100.413 46.676 99.9314C45.5221 99.7898 44.3461 99.7904 42.9022 99.7911H42.624C34.7192 99.7911 31.6552 99.7593 29.234 99.2326C20.3028 97.2928 13.3262 90.5571 11.3162 81.9297C10.7712 79.5913 10.7382 76.6315 10.7382 68.9984V55.0773C10.7382 44.739 10.7452 37.3898 11.3657 31.7052C11.9762 26.1126 13.1319 22.7309 15.0244 20.1211C16.61 17.9344 18.5796 16.0325 20.8439 14.5016C23.5459 12.6746 27.0469 11.5589 32.8377 10.9695Z" fill="#1678F2"/>
</svg>
