<svg width="36" height="37" viewBox="0 0 36 37" fill="none" xmlns="http://www.w3.org/2000/svg">
<path fill-rule="evenodd" clip-rule="evenodd" d="M28.9464 31.9152C25.8826 34.5739 21.923 36.1764 17.5993 36.1764C7.87949 36.1764 0 28.0781 0 18.0882C0 8.09837 7.87949 0 17.5993 0C27.3192 0 35.1986 8.09837 35.1986 18.0882C35.1986 22.532 33.6394 26.6016 31.0526 29.7505C31.1172 29.7984 31.1788 29.8523 31.237 29.9121L35.5582 34.3533C36.1473 34.9589 36.1473 35.9404 35.5582 36.546C34.969 37.1513 34.014 37.1513 33.4248 36.546L29.1036 32.1047C29.0454 32.0449 28.993 31.9816 28.9464 31.9152ZM32.1816 18.0882C32.1816 26.3654 25.6528 33.0756 17.5993 33.0756C9.54575 33.0756 3.01702 26.3654 3.01702 18.0882C3.01702 9.81091 9.54575 3.10083 17.5993 3.10083C25.6528 3.10083 32.1816 9.81091 32.1816 18.0882Z" fill="black"/>
</svg>
