<svg width="117" height="120" viewBox="0 0 117 120" fill="none" xmlns="http://www.w3.org/2000/svg">
<path fill-rule="evenodd" clip-rule="evenodd" d="M97.6883 10.3265C97.7725 10.3997 97.8574 10.4731 97.9423 10.5469L104.128 15.9127C104.213 15.9864 104.298 16.0598 104.382 16.133C107.803 19.1008 110.751 21.6579 112.826 24.0116C115.05 26.5342 116.785 29.3772 116.982 32.9795C117.178 36.5819 115.763 39.5848 113.826 42.3185C112.019 44.8693 109.366 47.7107 106.287 51.0084L53.5604 107.482C53.3915 107.663 53.2248 107.842 53.0601 108.018C50.157 111.134 47.8608 113.597 44.8182 115.135C41.7757 116.673 38.3676 117.093 34.0587 117.624C33.8142 117.654 33.5668 117.685 33.3164 117.716L21.2044 119.219C17.7809 119.644 14.6852 120.028 12.1625 119.998C9.41105 119.966 6.41539 119.448 3.90097 117.267C1.38655 115.086 0.537669 112.268 0.214802 109.634C-0.0812926 107.219 -0.00972205 104.211 0.0694803 100.885L0.348186 89.1168C0.353982 88.8735 0.359434 88.6329 0.364885 88.3956C0.460248 84.2095 0.535737 80.8983 1.80306 77.8204C3.07045 74.7418 5.37102 72.2822 8.27973 69.1721C8.44479 68.9957 8.61178 68.8172 8.78063 68.6361L61.2785 12.4078C61.3549 12.3258 61.4312 12.2442 61.5072 12.1628C64.586 8.86479 67.2385 6.0232 69.6805 4.02305C72.2978 1.87947 75.247 0.207295 78.9842 0.0176062C82.7215 -0.172049 85.837 1.1923 88.673 3.0591C91.3193 4.80099 94.2672 7.35838 97.6883 10.3265ZM82.8167 11.3253C80.9405 10.09 80.0883 9.98514 79.5301 10.0135C78.9718 10.0418 78.1369 10.2323 76.4049 11.6507C74.5584 13.1631 72.3703 15.4911 68.9974 19.1037L16.4995 75.3327C12.8517 79.2394 11.9482 80.3148 11.4551 81.5126C10.962 82.7103 10.8544 84.0906 10.7299 89.3454L10.4589 100.786C10.3699 104.547 10.328 106.832 10.5275 108.459C10.6197 109.213 10.7412 109.586 10.8128 109.75C10.8289 109.787 10.8414 109.811 10.8492 109.825C10.8642 109.831 10.8902 109.84 10.9302 109.852C11.1075 109.903 11.505 109.981 12.2914 109.99C13.9907 110.01 16.3451 109.73 20.2153 109.249L31.9904 107.788C37.3988 107.117 38.8113 106.869 39.9951 106.27C41.1789 105.672 42.1937 104.693 45.8416 100.786L98.3391 44.5573C101.712 40.9447 103.884 38.6024 105.25 36.6737C106.532 34.8649 106.641 34.044 106.612 33.5059C106.582 32.9679 106.385 32.1624 104.913 30.4934C103.344 28.7136 100.929 26.6041 97.1812 23.353L90.9957 17.9871C87.2474 14.736 84.8178 12.6424 82.8167 11.3253Z" fill="#1678F2"/>
</svg>
