<svg width="25" height="18" viewBox="0 0 25 18" fill="none" xmlns="http://www.w3.org/2000/svg">
<path d="M12.6843 17.435L7.81118 17.3439C6.23336 17.3121 4.65163 17.3755 3.10475 17.0467C0.7516 16.5554 0.584894 14.1467 0.410454 12.1262C0.170094 9.28569 0.263144 6.3936 0.716735 3.57677C0.972803 1.99624 1.98053 1.05313 3.53895 0.950499C8.79975 0.578043 14.0955 0.622183 19.3447 0.795947C19.899 0.811876 20.4572 0.898941 21.0039 0.998043C23.7022 1.4814 23.768 4.21103 23.9429 6.50887C24.1174 8.83042 24.0437 11.1639 23.7103 13.4696C23.4428 15.3787 22.931 16.9797 20.7712 17.1342C18.0652 17.3363 15.4212 17.499 12.7075 17.4472C12.7076 17.435 12.692 17.435 12.6843 17.435ZM9.81937 12.6017C11.8586 11.4051 13.859 10.2286 15.8866 9.04006C13.8435 7.84353 11.847 6.66695 9.81937 5.47845V12.6017Z" fill="#1678F2"/>
</svg>
